<svg width="1685" height="394" viewBox="0 0 1685 394" fill="none" xmlns="http://www.w3.org/2000/svg">
<path d="M261 205.5L290 189V310.5L145 394L40 333L70 316.5L145 360L261 293V205.5Z" fill="#F15B25"/>
<path d="M56 244.5V175L145.5 123L206 158.5L232 143L145.5 92.5L29.5 160V260L56 244.5V278L0 311V142.5L145.5 58.5L290.5 143L206 192.5L145.5 157.5L85 192.5V261L145 296L234.5 244V278L145 329.5L56 278V244.5Z" fill="#F15B25"/>
<path d="M314.109 238.516C314.109 223.609 317.062 210.203 322.969 198.297C328.875 186.297 337.172 177.109 347.859 170.734C358.547 164.266 370.828 161.031 384.703 161.031C405.234 161.031 421.875 167.641 434.625 180.859C447.469 194.078 454.406 211.609 455.438 233.453L455.578 241.469C455.578 256.469 452.672 269.875 446.859 281.688C441.141 293.5 432.891 302.641 422.109 309.109C411.422 315.578 399.047 318.812 384.984 318.812C363.516 318.812 346.312 311.688 333.375 297.438C320.531 283.094 314.109 264.016 314.109 240.203V238.516ZM348.281 241.469C348.281 257.125 351.516 269.406 357.984 278.312C364.453 287.125 373.453 291.531 384.984 291.531C396.516 291.531 405.469 287.031 411.844 278.031C418.312 269.031 421.547 255.859 421.547 238.516C421.547 223.141 418.219 210.953 411.562 201.953C405 192.953 396.047 188.453 384.703 188.453C373.547 188.453 364.688 192.906 358.125 201.812C351.562 210.625 348.281 223.844 348.281 241.469ZM516.609 163.844L517.594 179.734C528.281 167.266 542.906 161.031 561.469 161.031C581.812 161.031 595.734 168.812 603.234 184.375C614.297 168.812 629.859 161.031 649.922 161.031C666.703 161.031 679.172 165.672 687.328 174.953C695.578 184.234 699.797 197.922 699.984 216.016V316H665.812V217C665.812 207.344 663.703 200.266 659.484 195.766C655.266 191.266 648.281 189.016 638.531 189.016C630.75 189.016 624.375 191.125 619.406 195.344C614.531 199.469 611.109 204.906 609.141 211.656L609.281 316H575.109V215.875C574.641 197.969 565.5 189.016 547.688 189.016C534 189.016 524.297 194.594 518.578 205.75V316H484.406V163.844H516.609ZM868.312 241.469C868.312 265 862.969 283.797 852.281 297.859C841.594 311.828 827.25 318.812 809.25 318.812C792.562 318.812 779.203 313.328 769.172 302.359V374.5H735V163.844H766.5L767.906 179.312C777.938 167.125 791.578 161.031 808.828 161.031C827.391 161.031 841.922 167.969 852.422 181.844C863.016 195.625 868.312 214.797 868.312 239.359V241.469ZM834.281 238.516C834.281 223.328 831.234 211.281 825.141 202.375C819.141 193.469 810.516 189.016 799.266 189.016C785.297 189.016 775.266 194.781 769.172 206.312V273.812C775.359 285.625 785.484 291.531 799.547 291.531C810.422 291.531 818.906 287.172 825 278.453C831.188 269.641 834.281 256.328 834.281 238.516ZM989.531 301.094C979.5 312.906 965.25 318.812 946.781 318.812C930.281 318.812 917.766 313.984 909.234 304.328C900.797 294.672 896.578 280.703 896.578 262.422V163.844H930.75V262C930.75 281.312 938.766 290.969 954.797 290.969C971.391 290.969 982.594 285.016 988.406 273.109V163.844H1022.58V316H990.375L989.531 301.094ZM1208.62 139.938H1144.78V316H1109.48V139.938H1046.2V111.25H1208.62V139.938ZM1286.67 318.812C1265.02 318.812 1247.44 312.016 1233.94 298.422C1220.53 284.734 1213.83 266.547 1213.83 243.859V239.641C1213.83 224.453 1216.73 210.906 1222.55 199C1228.45 187 1236.7 177.672 1247.3 171.016C1257.89 164.359 1269.7 161.031 1282.73 161.031C1303.45 161.031 1319.44 167.641 1330.69 180.859C1342.03 194.078 1347.7 212.781 1347.7 236.969V250.75H1248.28C1249.31 263.312 1253.48 273.25 1260.8 280.562C1268.2 287.875 1277.48 291.531 1288.64 291.531C1304.3 291.531 1317.05 285.203 1326.89 272.547L1345.31 290.125C1339.22 299.219 1331.06 306.297 1320.84 311.359C1310.72 316.328 1299.33 318.812 1286.67 318.812ZM1282.59 188.453C1273.22 188.453 1265.62 191.734 1259.81 198.297C1254.09 204.859 1250.44 214 1248.84 225.719H1313.95V223.188C1313.2 211.75 1310.16 203.125 1304.81 197.312C1299.47 191.406 1292.06 188.453 1282.59 188.453ZM1436.86 291.531C1445.39 291.531 1452.47 289.047 1458.09 284.078C1463.72 279.109 1466.72 272.969 1467.09 265.656H1499.3C1498.92 275.125 1495.97 283.984 1490.44 292.234C1484.91 300.391 1477.41 306.859 1467.94 311.641C1458.47 316.422 1448.25 318.812 1437.28 318.812C1416 318.812 1399.12 311.922 1386.66 298.141C1374.19 284.359 1367.95 265.328 1367.95 241.047V237.531C1367.95 214.375 1374.14 195.859 1386.52 181.984C1398.89 168.016 1415.77 161.031 1437.14 161.031C1455.23 161.031 1469.95 166.328 1481.3 176.922C1492.73 187.422 1498.73 201.25 1499.3 218.406H1467.09C1466.72 209.688 1463.72 202.516 1458.09 196.891C1452.56 191.266 1445.48 188.453 1436.86 188.453C1425.8 188.453 1417.27 192.484 1411.27 200.547C1405.27 208.516 1402.22 220.656 1402.12 236.969V242.453C1402.12 258.953 1405.08 271.281 1410.98 279.438C1416.98 287.5 1425.61 291.531 1436.86 291.531ZM1558.78 180.438C1569.94 167.5 1584.05 161.031 1601.11 161.031C1633.55 161.031 1650 179.547 1650.47 216.578V316H1616.3V217.844C1616.3 207.344 1614 199.938 1609.41 195.625C1604.91 191.219 1598.25 189.016 1589.44 189.016C1575.75 189.016 1565.53 195.109 1558.78 207.297V316H1524.61V100H1558.78V180.438Z" fill="black"/>
</svg>
