<svg width="1939" height="877" viewBox="0 0 1939 877" fill="none" xmlns="http://www.w3.org/2000/svg">
<path d="M437.5 186.394V0C454.348 13.6238 462.287 24.9531 475.5 47.4729C489.678 87.7949 487.593 105.92 486.5 139.421C473.886 170.059 461.549 177.312 437.5 186.394Z" fill="#A5CD38"/>
<path d="M539.609 723.778C509.188 698.207 500.343 677.837 498 637.137C515.479 646.522 525.538 650.495 548.5 653.41C583.605 659.931 588.381 683.675 598.5 723.87C579.175 734.035 568.728 736.089 552.664 731.107C547.856 729.615 543.463 727.018 539.609 723.778Z" fill="#A5CD39"/>
<path d="M696.841 538.506C690.172 599.569 662.23 617.515 597 642.134C599.827 614.494 600.975 606.021 591.638 575.891C589.421 507.131 616.538 500.251 663 469.233C682.091 484.247 687.971 494.989 695.459 522.21C696.914 527.5 697.437 533.053 696.841 538.506Z" fill="#F9A648"/>
<path d="M474.9 219.741C519.486 169.507 555.556 171.165 629.139 190.476C609.222 213.098 602.866 219.857 592.163 252.319C550.814 314.409 522.442 303.447 461.715 301.641C454.195 276.212 455.826 263.028 466.542 233.859C468.44 228.694 471.247 223.857 474.9 219.741Z" fill="#19C1E8"/>
<path d="M714.376 350.219C714.774 285.945 689.741 266.981 628.98 240.643C628.74 269.355 626.271 279.646 614 310.823C604.458 382.161 632.609 388.084 674.201 420.736C694.556 405.131 701.307 393.948 711.713 364.901C713.399 360.196 714.345 355.216 714.376 350.219Z" fill="#3A4151"/>
<path d="M565.495 337.976C522.648 321.701 504.035 324.22 475.544 338.087C492.044 351.777 494.361 359.612 507.103 381.46C537.069 413.704 555.226 402.662 596.597 398.327C596.381 382.104 595.387 372.069 587.847 357.311C583.218 348.252 575.007 341.589 565.495 337.976Z" fill="#FEC907"/>
<path d="M497.444 508.447C520.53 488.428 545.784 485.45 583.406 487.445C569.389 509.528 562.118 516.238 563 543.975C545.123 609.086 519.664 604.901 473 608.154C473 603.205 472.214 596.067 471.187 588.331C467.766 562.567 477.808 525.474 497.444 508.447Z" fill="#19C1E8"/>
<path d="M787.143 549.872C811.907 587.129 815.962 616.884 808.5 666.62C788.403 657.111 778.066 650.492 757.199 635.138C710 595.161 712.5 558.182 722 526.2C745.777 521.828 753.975 526.281 767.436 533.164C775.22 537.143 782.304 542.592 787.143 549.872Z" fill="#3B4151"/>
<path d="M768.28 412.95C823.052 417.997 853.563 442.455 880.5 497.716C854.645 505.988 839.999 508.799 808.882 512.807C730.5 519.704 707.892 484.57 691.695 450.177C712.231 424.71 726.759 422.323 749.196 415.33C755.368 413.406 761.842 412.356 768.28 412.95Z" fill="#FEC907"/>
<path d="M528.231 92.0289C547.83 72.8509 566.161 63.5231 594.5 59.4661C591.708 77.7227 592.206 88.3145 585.489 108.405C569.144 160.376 541.988 162.134 516.325 159.476C513.035 145.83 513.481 137.08 514.019 127.63C514.768 114.472 518.812 101.246 528.231 92.0289Z" fill="#F9A648"/>
<path d="M712.049 694.26C682.195 737.519 659.789 749.92 607.5 758.068C616.95 736.875 623.5 726.586 629.5 700.601C633.405 659.558 655.026 638.708 703 622.145C719.564 645.738 719.812 668.697 712.723 692.851C712.577 693.35 712.344 693.832 712.049 694.26Z" fill="#19C0EA"/>
<path d="M807.533 375.033C843.279 335.032 850.533 309.336 847.176 253.855C828.627 268.07 816.66 276.988 792.822 288.678C792.61 288.781 792.38 288.869 792.154 288.935C746.486 302.153 735.968 336.459 740 388.778C766.592 400.708 784.365 388.68 806.294 376.039C806.754 375.774 807.179 375.429 807.533 375.033Z" fill="#A5CD38"/>
<path d="M738.897 198.378C714.808 157.68 695.728 145.455 650.208 135.923C657.436 155.586 661.895 168.216 665.876 192.002C665.912 192.216 665.931 192.442 665.932 192.659C666.155 236.161 691.433 253.231 734.576 261.456C750.275 240.564 744.65 222.091 739.468 199.801C739.353 199.305 739.157 198.817 738.897 198.378Z" fill="#3A4151"/>
<path d="M455.5 461.737C454.749 345.145 449.201 295.919 437 215.377L428 877H453L455.5 536.194C492.148 454.836 542.314 439.552 663 444.247C583.759 409.215 538.352 412.067 455.5 461.737Z" fill="#3B4151"/>
<path d="M438 877C321.835 877 210.428 830.854 128.287 748.713C46.1463 666.572 8.7702e-06 555.165 0 439C-8.7702e-06 322.835 46.1463 211.428 128.287 129.287C210.428 47.1463 321.835 1.00002 438 1L438 439V877Z" fill="#3B4151"/>
<path d="M243.5 320L121 459.5L158.5 638H328.5L364 459.5L243.5 320Z" fill="#FDFFFE"/>
<rect x="117" y="645.5" width="251" height="45" fill="#FEFEFE"/>
<ellipse cx="243" cy="481.5" rx="78" ry="96" fill="#3B4151"/>
<path d="M227 543.5C221.151 532.176 219.724 516.416 221.682 501.365C223.774 485.279 216.465 466.897 201 462C210.68 457.297 214.579 449.964 220.537 443.835C222.11 442.218 223.99 440.93 226.021 439.948C230.925 437.576 234.909 436.695 241.216 439.651C245.205 441.521 248.143 444.98 250.526 448.685C253.046 452.601 255.283 455.71 257.575 458.402C263.594 465.472 273.388 467.664 281.303 472.52C282.9 473.5 284.66 474.697 286.656 476.164C291.282 479.567 295.29 483.916 297.19 489.336C300.727 499.422 301.869 514.121 301.5 543.5V554L261.5 578.5C246.173 568.251 238.477 560.848 227 543.5Z" fill="#FEFEFE"/>
<path d="M238.5 253.5L58 456.5H108L244.5 303L379 456.5H428.5L250 253.5V42L238.5 50.5V253.5Z" fill="#FEFEFE"/>
<ellipse cx="196.997" cy="603.136" rx="23" ry="15.5" transform="rotate(-20.7253 196.997 603.136)" fill="#3B414F"/>
<ellipse cx="243" cy="240" rx="21" ry="20.5" fill="#FEFEFE"/>
<path d="M1176.28 407H1085.72V392.92L1114.84 382.36V302.68H1004.76V382.36L1033.88 392.92V407H943.32V392.92L972.44 382.36V205.72L943.32 195.16V181.08H1033.88V195.16L1004.76 205.72V278.04H1114.84V205.72L1085.72 195.16V181.08H1176.28V195.16L1147.16 205.72V382.36L1176.28 392.92V407ZM1389.75 378.52C1368.2 399.64 1342.49 410.2 1312.63 410.2C1282.76 410.2 1257.05 399.64 1235.51 378.52C1214.17 357.187 1203.51 329.347 1203.51 295C1203.51 260.44 1214.28 232.387 1235.83 210.84C1257.37 189.08 1282.97 178.2 1312.63 178.2C1342.28 178.2 1367.99 189.08 1389.75 210.84C1411.51 232.387 1422.39 260.44 1422.39 295C1422.39 329.347 1411.51 357.187 1389.75 378.52ZM1238.39 295C1238.39 320.173 1245 341.4 1258.23 358.68C1271.67 375.96 1289.8 384.6 1312.63 384.6C1335.67 384.6 1353.8 375.96 1367.03 358.68C1380.25 341.4 1386.87 320.173 1386.87 295C1386.87 269.613 1380.25 248.173 1367.03 230.68C1353.8 212.973 1335.56 204.12 1312.31 204.12C1289.27 204.12 1271.13 212.973 1257.91 230.68C1244.89 248.173 1238.39 269.613 1238.39 295ZM1722.31 407H1628.23V389.72L1657.35 377.56L1644.55 216.6L1595.91 407H1562.63L1513.99 216.6L1501.19 377.56L1530.31 389.72V407H1436.23V388.76L1470.15 376.6L1489.35 211.48L1455.75 199.32V181.08H1530.95L1577.03 365.72L1579.27 370.84L1581.51 365.72L1627.59 181.08H1702.15V199.32L1668.87 211.16L1688.39 376.6L1722.31 388.76V407ZM1919.3 407H1738.18V392.92L1767.3 382.36V205.72L1738.18 195.16V181.08H1919.3V232.92H1902.66L1892.1 205.4H1799.62V281.56H1873.22L1879.3 263H1894.02V326.04H1879.3L1873.22 304.6H1799.62V382.68H1892.1L1902.66 355.16H1919.3V407Z" fill="black"/>
<path d="M1176.28 407V408H1177.28V407H1176.28ZM1085.72 407H1084.72V408H1085.72V407ZM1085.72 392.92L1085.38 391.98L1084.72 392.219V392.92H1085.72ZM1114.84 382.36L1115.18 383.3L1115.84 383.061V382.36H1114.84ZM1114.84 302.68H1115.84V301.68H1114.84V302.68ZM1004.76 302.68V301.68H1003.76V302.68H1004.76ZM1004.76 382.36H1003.76V383.061L1004.42 383.3L1004.76 382.36ZM1033.88 392.92H1034.88V392.219L1034.22 391.98L1033.88 392.92ZM1033.88 407V408H1034.88V407H1033.88ZM943.32 407H942.32V408H943.32V407ZM943.32 392.92L942.979 391.98L942.32 392.219V392.92H943.32ZM972.44 382.36L972.781 383.3L973.44 383.061V382.36H972.44ZM972.44 205.72H973.44V205.019L972.781 204.78L972.44 205.72ZM943.32 195.16H942.32V195.861L942.979 196.1L943.32 195.16ZM943.32 181.08V180.08H942.32V181.08H943.32ZM1033.88 181.08H1034.88V180.08H1033.88V181.08ZM1033.88 195.16L1034.22 196.1L1034.88 195.861V195.16H1033.88ZM1004.76 205.72L1004.42 204.78L1003.76 205.019V205.72H1004.76ZM1004.76 278.04H1003.76V279.04H1004.76V278.04ZM1114.84 278.04V279.04H1115.84V278.04H1114.84ZM1114.84 205.72H1115.84V205.019L1115.18 204.78L1114.84 205.72ZM1085.72 195.16H1084.72V195.861L1085.38 196.1L1085.72 195.16ZM1085.72 181.08V180.08H1084.72V181.08H1085.72ZM1176.28 181.08H1177.28V180.08H1176.28V181.08ZM1176.28 195.16L1176.62 196.1L1177.28 195.861V195.16H1176.28ZM1147.16 205.72L1146.82 204.78L1146.16 205.019V205.72H1147.16ZM1147.16 382.36H1146.16V383.061L1146.82 383.3L1147.16 382.36ZM1176.28 392.92H1177.28V392.219L1176.62 391.98L1176.28 392.92ZM1176.28 406H1085.72V408H1176.28V406ZM1086.72 407V392.92H1084.72V407H1086.72ZM1086.06 393.86L1115.18 383.3L1114.5 381.42L1085.38 391.98L1086.06 393.86ZM1115.84 382.36V302.68H1113.84V382.36H1115.84ZM1114.84 301.68H1004.76V303.68H1114.84V301.68ZM1003.76 302.68V382.36H1005.76V302.68H1003.76ZM1004.42 383.3L1033.54 393.86L1034.22 391.98L1005.1 381.42L1004.42 383.3ZM1032.88 392.92V407H1034.88V392.92H1032.88ZM1033.88 406H943.32V408H1033.88V406ZM944.32 407V392.92H942.32V407H944.32ZM943.661 393.86L972.781 383.3L972.099 381.42L942.979 391.98L943.661 393.86ZM973.44 382.36V205.72H971.44V382.36H973.44ZM972.781 204.78L943.661 194.22L942.979 196.1L972.099 206.66L972.781 204.78ZM944.32 195.16V181.08H942.32V195.16H944.32ZM943.32 182.08H1033.88V180.08H943.32V182.08ZM1032.88 181.08V195.16H1034.88V181.08H1032.88ZM1033.54 194.22L1004.42 204.78L1005.1 206.66L1034.22 196.1L1033.54 194.22ZM1003.76 205.72V278.04H1005.76V205.72H1003.76ZM1004.76 279.04H1114.84V277.04H1004.76V279.04ZM1115.84 278.04V205.72H1113.84V278.04H1115.84ZM1115.18 204.78L1086.06 194.22L1085.38 196.1L1114.5 206.66L1115.18 204.78ZM1086.72 195.16V181.08H1084.72V195.16H1086.72ZM1085.72 182.08H1176.28V180.08H1085.72V182.08ZM1175.28 181.08V195.16H1177.28V181.08H1175.28ZM1175.94 194.22L1146.82 204.78L1147.5 206.66L1176.62 196.1L1175.94 194.22ZM1146.16 205.72V382.36H1148.16V205.72H1146.16ZM1146.82 383.3L1175.94 393.86L1176.62 391.98L1147.5 381.42L1146.82 383.3ZM1175.28 392.92V407H1177.28V392.92H1175.28ZM1389.75 378.52L1390.45 379.234L1390.45 379.234L1389.75 378.52ZM1235.51 378.52L1234.8 379.227L1234.81 379.234L1235.51 378.52ZM1235.83 210.84L1236.53 211.547L1236.54 211.544L1235.83 210.84ZM1389.75 210.84L1389.04 211.547L1389.04 211.551L1389.75 210.84ZM1258.23 358.68L1257.43 359.288L1257.44 359.294L1258.23 358.68ZM1367.03 358.68L1366.23 358.072L1366.23 358.072L1367.03 358.68ZM1367.03 230.68L1366.22 231.278L1366.23 231.283L1367.03 230.68ZM1257.91 230.68L1257.1 230.082L1257.1 230.083L1257.91 230.68ZM1389.05 377.806C1367.68 398.745 1342.23 409.2 1312.63 409.2V411.2C1342.76 411.2 1368.71 400.535 1390.45 379.234L1389.05 377.806ZM1312.63 409.2C1283.02 409.2 1257.57 398.745 1236.21 377.806L1234.81 379.234C1256.54 400.535 1282.49 411.2 1312.63 411.2V409.2ZM1236.21 377.813C1215.09 356.694 1204.51 329.121 1204.51 295H1202.51C1202.51 329.572 1213.25 357.68 1234.8 379.227L1236.21 377.813ZM1204.51 295C1204.51 260.666 1215.2 232.88 1236.53 211.547L1235.12 210.133C1213.36 231.893 1202.51 260.214 1202.51 295H1204.51ZM1236.54 211.544C1257.9 189.966 1283.25 179.2 1312.63 179.2V177.2C1282.7 177.2 1256.84 188.194 1235.11 210.136L1236.54 211.544ZM1312.63 179.2C1342 179.2 1367.46 189.967 1389.04 211.547L1390.45 210.133C1368.51 188.193 1342.55 177.2 1312.63 177.2V179.2ZM1389.04 211.551C1410.59 232.885 1421.39 260.669 1421.39 295H1423.39C1423.39 260.211 1412.42 231.889 1390.45 210.129L1389.04 211.551ZM1421.39 295C1421.39 329.115 1410.59 356.685 1389.04 377.806L1390.45 379.234C1412.42 357.688 1423.39 329.578 1423.39 295H1421.39ZM1237.39 295C1237.39 320.357 1244.05 341.807 1257.43 359.288L1259.02 358.072C1245.95 340.993 1239.39 319.99 1239.39 295H1237.39ZM1257.44 359.294C1271.07 376.829 1289.51 385.6 1312.63 385.6V383.6C1290.09 383.6 1272.26 375.091 1259.01 358.066L1257.44 359.294ZM1312.63 385.6C1335.96 385.6 1354.39 376.831 1367.82 359.288L1366.23 358.072C1353.21 375.089 1335.37 383.6 1312.63 383.6V385.6ZM1367.82 359.288C1381.2 341.807 1387.87 320.357 1387.87 295H1385.87C1385.87 319.99 1379.3 340.993 1366.23 358.072L1367.82 359.288ZM1387.87 295C1387.87 269.431 1381.2 247.77 1367.82 230.077L1366.23 231.283C1379.3 248.576 1385.87 269.795 1385.87 295H1387.87ZM1367.83 230.082C1354.4 212.107 1335.85 203.12 1312.31 203.12V205.12C1335.26 205.12 1353.2 213.84 1366.22 231.278L1367.83 230.082ZM1312.31 203.12C1288.97 203.12 1270.53 212.11 1257.1 230.082L1258.71 231.278C1271.73 213.837 1289.56 205.12 1312.31 205.12V203.12ZM1257.1 230.083C1243.94 247.776 1237.39 269.435 1237.39 295H1239.39C1239.39 269.792 1245.84 248.57 1258.71 231.277L1257.1 230.083ZM1722.31 407V408H1723.31V407H1722.31ZM1628.23 407H1627.23V408H1628.23V407ZM1628.23 389.72L1627.84 388.797L1627.23 389.054V389.72H1628.23ZM1657.35 377.56L1657.73 378.483L1658.4 378.203L1658.34 377.481L1657.35 377.56ZM1644.55 216.6L1645.54 216.521L1643.58 216.352L1644.55 216.6ZM1595.91 407V408H1596.68L1596.87 407.248L1595.91 407ZM1562.63 407L1561.66 407.248L1561.85 408H1562.63V407ZM1513.99 216.6L1514.95 216.352L1512.99 216.521L1513.99 216.6ZM1501.19 377.56L1500.19 377.481L1500.13 378.203L1500.8 378.483L1501.19 377.56ZM1530.31 389.72H1531.31V389.054L1530.69 388.797L1530.31 389.72ZM1530.31 407V408H1531.31V407H1530.31ZM1436.23 407H1435.23V408H1436.23V407ZM1436.23 388.76L1435.89 387.819L1435.23 388.056V388.76H1436.23ZM1470.15 376.6L1470.48 377.541L1471.07 377.332L1471.14 376.715L1470.15 376.6ZM1489.35 211.48L1490.34 211.596L1490.43 210.809L1489.69 210.54L1489.35 211.48ZM1455.75 199.32H1454.75V200.022L1455.4 200.26L1455.75 199.32ZM1455.75 181.08V180.08H1454.75V181.08H1455.75ZM1530.95 181.08L1531.92 180.838L1531.73 180.08H1530.95V181.08ZM1577.03 365.72L1576.05 365.962L1576.08 366.044L1576.11 366.121L1577.03 365.72ZM1579.27 370.84L1578.35 371.241L1579.27 373.335L1580.18 371.241L1579.27 370.84ZM1581.51 365.72L1582.42 366.121L1582.45 366.044L1582.48 365.962L1581.51 365.72ZM1627.59 181.08V180.08H1626.8L1626.61 180.838L1627.59 181.08ZM1702.15 181.08H1703.15V180.08H1702.15V181.08ZM1702.15 199.32L1702.48 200.262L1703.15 200.026V199.32H1702.15ZM1668.87 211.16L1668.53 210.218L1667.78 210.485L1667.87 211.277L1668.87 211.16ZM1688.39 376.6L1687.39 376.717L1687.46 377.332L1688.05 377.541L1688.39 376.6ZM1722.31 388.76H1723.31V388.056L1722.64 387.819L1722.31 388.76ZM1722.31 406H1628.23V408H1722.31V406ZM1629.23 407V389.72H1627.23V407H1629.23ZM1628.61 390.643L1657.73 378.483L1656.96 376.637L1627.84 388.797L1628.61 390.643ZM1658.34 377.481L1645.54 216.521L1643.55 216.679L1656.35 377.639L1658.34 377.481ZM1643.58 216.352L1594.94 406.752L1596.87 407.248L1645.51 216.848L1643.58 216.352ZM1595.91 406H1562.63V408H1595.91V406ZM1563.59 406.752L1514.95 216.352L1513.02 216.848L1561.66 407.248L1563.59 406.752ZM1512.99 216.521L1500.19 377.481L1502.18 377.639L1514.98 216.679L1512.99 216.521ZM1500.8 378.483L1529.92 390.643L1530.69 388.797L1501.57 376.637L1500.8 378.483ZM1529.31 389.72V407H1531.31V389.72H1529.31ZM1530.31 406H1436.23V408H1530.31V406ZM1437.23 407V388.76H1435.23V407H1437.23ZM1436.56 389.701L1470.48 377.541L1469.81 375.659L1435.89 387.819L1436.56 389.701ZM1471.14 376.715L1490.34 211.596L1488.35 211.364L1469.15 376.484L1471.14 376.715ZM1489.69 210.54L1456.09 198.38L1455.4 200.26L1489 212.42L1489.69 210.54ZM1456.75 199.32V181.08H1454.75V199.32H1456.75ZM1455.75 182.08H1530.95V180.08H1455.75V182.08ZM1529.97 181.322L1576.05 365.962L1578 365.478L1531.92 180.838L1529.97 181.322ZM1576.11 366.121L1578.35 371.241L1580.18 370.439L1577.94 365.319L1576.11 366.121ZM1580.18 371.241L1582.42 366.121L1580.59 365.319L1578.35 370.439L1580.18 371.241ZM1582.48 365.962L1628.56 181.322L1626.61 180.838L1580.53 365.478L1582.48 365.962ZM1627.59 182.08H1702.15V180.08H1627.59V182.08ZM1701.15 181.08V199.32H1703.15V181.08H1701.15ZM1701.81 198.378L1668.53 210.218L1669.2 212.102L1702.48 200.262L1701.81 198.378ZM1667.87 211.277L1687.39 376.717L1689.38 376.483L1669.86 211.043L1667.87 211.277ZM1688.05 377.541L1721.97 389.701L1722.64 387.819L1688.72 375.659L1688.05 377.541ZM1721.31 388.76V407H1723.31V388.76H1721.31ZM1919.3 407V408H1920.3V407H1919.3ZM1738.18 407H1737.18V408H1738.18V407ZM1738.18 392.92L1737.84 391.98L1737.18 392.219V392.92H1738.18ZM1767.3 382.36L1767.64 383.3L1768.3 383.061V382.36H1767.3ZM1767.3 205.72H1768.3V205.019L1767.64 204.78L1767.3 205.72ZM1738.18 195.16H1737.18V195.861L1737.84 196.1L1738.18 195.16ZM1738.18 181.08V180.08H1737.18V181.08H1738.18ZM1919.3 181.08H1920.3V180.08H1919.3V181.08ZM1919.3 232.92V233.92H1920.3V232.92H1919.3ZM1902.66 232.92L1901.73 233.278L1901.98 233.92H1902.66V232.92ZM1892.1 205.4L1893.04 205.042L1892.79 204.4H1892.1V205.4ZM1799.62 205.4V204.4H1798.62V205.4H1799.62ZM1799.62 281.56H1798.62V282.56H1799.62V281.56ZM1873.22 281.56V282.56H1873.95L1874.17 281.871L1873.22 281.56ZM1879.3 263V262H1878.58L1878.35 262.689L1879.3 263ZM1894.02 263H1895.02V262H1894.02V263ZM1894.02 326.04V327.04H1895.02V326.04H1894.02ZM1879.3 326.04L1878.34 326.313L1878.55 327.04H1879.3V326.04ZM1873.22 304.6L1874.18 304.327L1873.98 303.6H1873.22V304.6ZM1799.62 304.6V303.6H1798.62V304.6H1799.62ZM1799.62 382.68H1798.62V383.68H1799.62V382.68ZM1892.1 382.68V383.68H1892.79L1893.04 383.038L1892.1 382.68ZM1902.66 355.16V354.16H1901.98L1901.73 354.802L1902.66 355.16ZM1919.3 355.16H1920.3V354.16H1919.3V355.16ZM1919.3 406H1738.18V408H1919.3V406ZM1739.18 407V392.92H1737.18V407H1739.18ZM1738.52 393.86L1767.64 383.3L1766.96 381.42L1737.84 391.98L1738.52 393.86ZM1768.3 382.36V205.72H1766.3V382.36H1768.3ZM1767.64 204.78L1738.52 194.22L1737.84 196.1L1766.96 206.66L1767.64 204.78ZM1739.18 195.16V181.08H1737.18V195.16H1739.18ZM1738.18 182.08H1919.3V180.08H1738.18V182.08ZM1918.3 181.08V232.92H1920.3V181.08H1918.3ZM1919.3 231.92H1902.66V233.92H1919.3V231.92ZM1903.6 232.562L1893.04 205.042L1891.17 205.758L1901.73 233.278L1903.6 232.562ZM1892.1 204.4H1799.62V206.4H1892.1V204.4ZM1798.62 205.4V281.56H1800.62V205.4H1798.62ZM1799.62 282.56H1873.22V280.56H1799.62V282.56ZM1874.17 281.871L1880.25 263.311L1878.35 262.689L1872.27 281.249L1874.17 281.871ZM1879.3 264H1894.02V262H1879.3V264ZM1893.02 263V326.04H1895.02V263H1893.02ZM1894.02 325.04H1879.3V327.04H1894.02V325.04ZM1880.26 325.767L1874.18 304.327L1872.26 304.873L1878.34 326.313L1880.26 325.767ZM1873.22 303.6H1799.62V305.6H1873.22V303.6ZM1798.62 304.6V382.68H1800.62V304.6H1798.62ZM1799.62 383.68H1892.1V381.68H1799.62V383.68ZM1893.04 383.038L1903.6 355.518L1901.73 354.802L1891.17 382.322L1893.04 383.038ZM1902.66 356.16H1919.3V354.16H1902.66V356.16ZM1918.3 355.16V407H1920.3V355.16H1918.3Z" fill="white"/>
<path d="M1217.2 699H1187.76L1083.76 520.76V674.36L1105.84 684.92V699H1022.32V684.92L1051.44 674.36V497.72L1022.32 487.16V473.08H1087.92L1184.88 640.12V497.72L1162.8 487.16V473.08H1246.32V487.16L1217.2 497.72V699ZM1450.48 699H1269.36V684.92L1298.48 674.36V497.72L1269.36 487.16V473.08H1450.48V524.92H1433.84L1423.28 497.4H1330.8V573.56H1404.4L1410.48 555H1425.2V618.04H1410.48L1404.4 596.6H1330.8V674.68H1423.28L1433.84 647.16H1450.48V699ZM1484.64 638.2H1503.84L1512.8 667.96C1521.12 674.573 1534.67 677.88 1553.44 677.88C1565.6 677.88 1575.31 674.68 1582.56 668.28C1590.03 661.88 1593.76 653.88 1593.76 644.28C1593.76 634.467 1589.71 625.293 1581.6 616.76C1573.71 608.013 1560.05 600.013 1540.64 592.76C1503.95 578.893 1485.6 559.48 1485.6 534.52C1485.6 513.613 1492.21 497.72 1505.44 486.84C1518.67 475.747 1534.88 470.2 1554.08 470.2C1577.55 470.2 1597.6 474.147 1614.24 482.04C1616.16 482.893 1617.97 483.853 1619.68 484.92V528.76L1600.8 529.4L1593.44 503.48C1584.69 499 1573.28 496.76 1559.2 496.76C1530.4 496.76 1516 505.933 1516 524.28C1516 534.52 1519.84 543.053 1527.52 549.88C1535.41 556.493 1547.57 562.787 1564 568.76C1604.11 583.48 1624.16 606.947 1624.16 639.16C1624.16 657.933 1617.87 673.187 1605.28 684.92C1592.69 696.653 1574.45 702.52 1550.56 702.52C1539.68 702.52 1528.91 701.133 1518.24 698.36C1502.67 694.093 1491.47 689.293 1484.64 683.96V638.2ZM1792.93 699H1702.37V684.92L1731.49 674.36V497.4H1675.17L1664.61 524.92H1644.77V473.08H1852.77V524.92H1832.93L1822.37 497.4H1763.81V674.36L1792.93 684.92V699Z" fill="black"/>
<path d="M1217.2 699V700H1218.2V699H1217.2ZM1187.76 699L1186.9 699.504L1187.19 700H1187.76V699ZM1083.76 520.76L1084.62 520.256L1082.76 517.062V520.76H1083.76ZM1083.76 674.36H1082.76V674.99L1083.33 675.262L1083.76 674.36ZM1105.84 684.92H1106.84V684.29L1106.27 684.018L1105.84 684.92ZM1105.84 699V700H1106.84V699H1105.84ZM1022.32 699H1021.32V700H1022.32V699ZM1022.32 684.92L1021.98 683.98L1021.32 684.219V684.92H1022.32ZM1051.44 674.36L1051.78 675.3L1052.44 675.061V674.36H1051.44ZM1051.44 497.72H1052.44V497.019L1051.78 496.78L1051.44 497.72ZM1022.32 487.16H1021.32V487.861L1021.98 488.1L1022.32 487.16ZM1022.32 473.08V472.08H1021.32V473.08H1022.32ZM1087.92 473.08L1088.78 472.578L1088.5 472.08H1087.92V473.08ZM1184.88 640.12L1184.02 640.622L1185.88 643.835V640.12H1184.88ZM1184.88 497.72H1185.88V497.09L1185.31 496.818L1184.88 497.72ZM1162.8 487.16H1161.8V487.79L1162.37 488.062L1162.8 487.16ZM1162.8 473.08V472.08H1161.8V473.08H1162.8ZM1246.32 473.08H1247.32V472.08H1246.32V473.08ZM1246.32 487.16L1246.66 488.1L1247.32 487.861V487.16H1246.32ZM1217.2 497.72L1216.86 496.78L1216.2 497.019V497.72H1217.2ZM1217.2 698H1187.76V700H1217.2V698ZM1188.62 698.496L1084.62 520.256L1082.9 521.264L1186.9 699.504L1188.62 698.496ZM1082.76 520.76V674.36H1084.76V520.76H1082.76ZM1083.33 675.262L1105.41 685.822L1106.27 684.018L1084.19 673.458L1083.33 675.262ZM1104.84 684.92V699H1106.84V684.92H1104.84ZM1105.84 698H1022.32V700H1105.84V698ZM1023.32 699V684.92H1021.32V699H1023.32ZM1022.66 685.86L1051.78 675.3L1051.1 673.42L1021.98 683.98L1022.66 685.86ZM1052.44 674.36V497.72H1050.44V674.36H1052.44ZM1051.78 496.78L1022.66 486.22L1021.98 488.1L1051.1 498.66L1051.78 496.78ZM1023.32 487.16V473.08H1021.32V487.16H1023.32ZM1022.32 474.08H1087.92V472.08H1022.32V474.08ZM1087.06 473.582L1184.02 640.622L1185.74 639.618L1088.78 472.578L1087.06 473.582ZM1185.88 640.12V497.72H1183.88V640.12H1185.88ZM1185.31 496.818L1163.23 486.258L1162.37 488.062L1184.45 498.622L1185.31 496.818ZM1163.8 487.16V473.08H1161.8V487.16H1163.8ZM1162.8 474.08H1246.32V472.08H1162.8V474.08ZM1245.32 473.08V487.16H1247.32V473.08H1245.32ZM1245.98 486.22L1216.86 496.78L1217.54 498.66L1246.66 488.1L1245.98 486.22ZM1216.2 497.72V699H1218.2V497.72H1216.2ZM1450.48 699V700H1451.48V699H1450.48ZM1269.36 699H1268.36V700H1269.36V699ZM1269.36 684.92L1269.02 683.98L1268.36 684.219V684.92H1269.36ZM1298.48 674.36L1298.82 675.3L1299.48 675.061V674.36H1298.48ZM1298.48 497.72H1299.48V497.019L1298.82 496.78L1298.48 497.72ZM1269.36 487.16H1268.36V487.861L1269.02 488.1L1269.36 487.16ZM1269.36 473.08V472.08H1268.36V473.08H1269.36ZM1450.48 473.08H1451.48V472.08H1450.48V473.08ZM1450.48 524.92V525.92H1451.48V524.92H1450.48ZM1433.84 524.92L1432.9 525.278L1433.15 525.92H1433.84V524.92ZM1423.28 497.4L1424.21 497.042L1423.96 496.4H1423.28V497.4ZM1330.8 497.4V496.4H1329.8V497.4H1330.8ZM1330.8 573.56H1329.8V574.56H1330.8V573.56ZM1404.4 573.56V574.56H1405.12L1405.35 573.871L1404.4 573.56ZM1410.48 555V554H1409.75L1409.53 554.689L1410.48 555ZM1425.2 555H1426.2V554H1425.2V555ZM1425.2 618.04V619.04H1426.2V618.04H1425.2ZM1410.48 618.04L1409.52 618.313L1409.72 619.04H1410.48V618.04ZM1404.4 596.6L1405.36 596.327L1405.15 595.6H1404.4V596.6ZM1330.8 596.6V595.6H1329.8V596.6H1330.8ZM1330.8 674.68H1329.8V675.68H1330.8V674.68ZM1423.28 674.68V675.68H1423.96L1424.21 675.038L1423.28 674.68ZM1433.84 647.16V646.16H1433.15L1432.9 646.802L1433.84 647.16ZM1450.48 647.16H1451.48V646.16H1450.48V647.16ZM1450.48 698H1269.36V700H1450.48V698ZM1270.36 699V684.92H1268.36V699H1270.36ZM1269.7 685.86L1298.82 675.3L1298.14 673.42L1269.02 683.98L1269.7 685.86ZM1299.48 674.36V497.72H1297.48V674.36H1299.48ZM1298.82 496.78L1269.7 486.22L1269.02 488.1L1298.14 498.66L1298.82 496.78ZM1270.36 487.16V473.08H1268.36V487.16H1270.36ZM1269.36 474.08H1450.48V472.08H1269.36V474.08ZM1449.48 473.08V524.92H1451.48V473.08H1449.48ZM1450.48 523.92H1433.84V525.92H1450.48V523.92ZM1434.77 524.562L1424.21 497.042L1422.34 497.758L1432.9 525.278L1434.77 524.562ZM1423.28 496.4H1330.8V498.4H1423.28V496.4ZM1329.8 497.4V573.56H1331.8V497.4H1329.8ZM1330.8 574.56H1404.4V572.56H1330.8V574.56ZM1405.35 573.871L1411.43 555.311L1409.53 554.689L1403.45 573.249L1405.35 573.871ZM1410.48 556H1425.2V554H1410.48V556ZM1424.2 555V618.04H1426.2V555H1424.2ZM1425.2 617.04H1410.48V619.04H1425.2V617.04ZM1411.44 617.767L1405.36 596.327L1403.44 596.873L1409.52 618.313L1411.44 617.767ZM1404.4 595.6H1330.8V597.6H1404.4V595.6ZM1329.8 596.6V674.68H1331.8V596.6H1329.8ZM1330.8 675.68H1423.28V673.68H1330.8V675.68ZM1424.21 675.038L1434.77 647.518L1432.9 646.802L1422.34 674.322L1424.21 675.038ZM1433.84 648.16H1450.48V646.16H1433.84V648.16ZM1449.48 647.16V699H1451.48V647.16H1449.48ZM1484.64 638.2V637.2H1483.64V638.2H1484.64ZM1503.84 638.2L1504.8 637.912L1504.58 637.2H1503.84V638.2ZM1512.8 667.96L1511.84 668.248L1511.93 668.548L1512.18 668.743L1512.8 667.96ZM1582.56 668.28L1581.91 667.521L1581.9 667.525L1581.9 667.53L1582.56 668.28ZM1581.6 616.76L1580.86 617.43L1580.87 617.439L1580.88 617.449L1581.6 616.76ZM1540.64 592.76L1540.29 593.695L1540.29 593.697L1540.64 592.76ZM1505.44 486.84L1506.08 487.612L1506.08 487.606L1505.44 486.84ZM1614.24 482.04L1613.81 482.943L1613.82 482.949L1613.83 482.954L1614.24 482.04ZM1619.68 484.92H1620.68V484.366L1620.21 484.072L1619.68 484.92ZM1619.68 528.76L1619.71 529.759L1620.68 529.727V528.76H1619.68ZM1600.8 529.4L1599.84 529.673L1600.05 530.426L1600.83 530.399L1600.8 529.4ZM1593.44 503.48L1594.4 503.207L1594.28 502.788L1593.9 502.59L1593.44 503.48ZM1527.52 549.88L1526.86 550.627L1526.87 550.637L1526.88 550.647L1527.52 549.88ZM1564 568.76L1564.34 567.821L1564.34 567.82L1564 568.76ZM1605.28 684.92L1605.96 685.651L1605.96 685.651L1605.28 684.92ZM1518.24 698.36L1517.98 699.325L1517.99 699.328L1518.24 698.36ZM1484.64 683.96H1483.64V684.448L1484.02 684.748L1484.64 683.96ZM1484.64 639.2H1503.84V637.2H1484.64V639.2ZM1502.88 638.488L1511.84 668.248L1513.76 667.672L1504.8 637.912L1502.88 638.488ZM1512.18 668.743C1520.77 675.57 1534.6 678.88 1553.44 678.88V676.88C1534.74 676.88 1521.47 673.577 1513.42 667.177L1512.18 668.743ZM1553.44 678.88C1565.78 678.88 1575.74 675.629 1583.22 669.03L1581.9 667.53C1574.87 673.731 1565.42 676.88 1553.44 676.88V678.88ZM1583.21 669.039C1590.89 662.455 1594.76 654.18 1594.76 644.28H1592.76C1592.76 653.58 1589.16 661.305 1581.91 667.521L1583.21 669.039ZM1594.76 644.28C1594.76 634.161 1590.57 624.751 1582.33 616.071L1580.88 617.449C1588.84 625.836 1592.76 634.773 1592.76 644.28H1594.76ZM1582.34 616.09C1574.29 607.165 1560.46 599.096 1540.99 591.823L1540.29 593.697C1559.65 600.931 1573.12 608.861 1580.86 617.43L1582.34 616.09ZM1540.99 591.825C1504.43 578.008 1486.6 558.845 1486.6 534.52H1484.6C1484.6 560.115 1503.46 579.778 1540.29 593.695L1540.99 591.825ZM1486.6 534.52C1486.6 513.84 1493.13 498.261 1506.08 487.612L1504.8 486.068C1491.3 497.179 1484.6 513.387 1484.6 534.52H1486.6ZM1506.08 487.606C1519.11 476.681 1535.09 471.2 1554.08 471.2V469.2C1534.67 469.2 1518.22 474.812 1504.8 486.074L1506.08 487.606ZM1554.08 471.2C1577.44 471.2 1597.34 475.129 1613.81 482.943L1614.67 481.136C1597.86 473.165 1577.66 469.2 1554.08 469.2V471.2ZM1613.83 482.954C1615.71 483.789 1617.48 484.727 1619.15 485.768L1620.21 484.072C1618.46 482.979 1616.61 481.998 1614.65 481.126L1613.83 482.954ZM1618.68 484.92V528.76H1620.68V484.92H1618.68ZM1619.65 527.761L1600.77 528.401L1600.83 530.399L1619.71 529.759L1619.65 527.761ZM1601.76 529.127L1594.4 503.207L1592.48 503.753L1599.84 529.673L1601.76 529.127ZM1593.9 502.59C1584.96 498.013 1573.37 495.76 1559.2 495.76V497.76C1573.19 497.76 1584.43 499.987 1592.98 504.37L1593.9 502.59ZM1559.2 495.76C1544.73 495.76 1533.7 498.059 1526.26 502.797C1518.75 507.583 1515 514.795 1515 524.28H1517C1517 515.418 1520.45 508.871 1527.34 504.483C1534.3 500.047 1544.87 497.76 1559.2 497.76V495.76ZM1515 524.28C1515 534.807 1518.96 543.612 1526.86 550.627L1528.18 549.133C1520.72 542.495 1517 534.233 1517 524.28H1515ZM1526.88 550.647C1534.9 557.369 1547.19 563.71 1563.66 569.7L1564.34 567.82C1547.96 561.863 1535.93 555.618 1528.16 549.113L1526.88 550.647ZM1563.66 569.699C1583.61 577.021 1598.48 586.487 1608.36 598.05C1618.22 609.593 1623.16 623.28 1623.16 639.16H1625.16C1625.16 622.826 1620.07 608.673 1609.88 596.75C1599.71 584.846 1584.5 575.219 1564.34 567.821L1563.66 569.699ZM1623.16 639.16C1623.16 657.684 1616.96 672.663 1604.6 684.189L1605.96 685.651C1618.77 673.711 1625.16 658.183 1625.16 639.16H1623.16ZM1604.6 684.189C1592.26 695.692 1574.3 701.52 1550.56 701.52V703.52C1574.61 703.52 1593.13 697.615 1605.96 685.651L1604.6 684.189ZM1550.56 701.52C1539.77 701.52 1529.08 700.144 1518.49 697.392L1517.99 699.328C1528.74 702.122 1539.59 703.52 1550.56 703.52V701.52ZM1518.5 697.396C1502.97 693.139 1491.92 688.381 1485.26 683.172L1484.02 684.748C1491.01 690.206 1502.37 695.048 1517.98 699.324L1518.5 697.396ZM1485.64 683.96V638.2H1483.64V683.96H1485.64ZM1792.93 699V700H1793.93V699H1792.93ZM1702.37 699H1701.37V700H1702.37V699ZM1702.37 684.92L1702.03 683.98L1701.37 684.219V684.92H1702.37ZM1731.49 674.36L1731.83 675.3L1732.49 675.061V674.36H1731.49ZM1731.49 497.4H1732.49V496.4H1731.49V497.4ZM1675.17 497.4V496.4H1674.48L1674.24 497.042L1675.17 497.4ZM1664.61 524.92V525.92H1665.3L1665.54 525.278L1664.61 524.92ZM1644.77 524.92H1643.77V525.92H1644.77V524.92ZM1644.77 473.08V472.08H1643.77V473.08H1644.77ZM1852.77 473.08H1853.77V472.08H1852.77V473.08ZM1852.77 524.92V525.92H1853.77V524.92H1852.77ZM1832.93 524.92L1832 525.278L1832.24 525.92H1832.93V524.92ZM1822.37 497.4L1823.3 497.042L1823.06 496.4H1822.37V497.4ZM1763.81 497.4V496.4H1762.81V497.4H1763.81ZM1763.81 674.36H1762.81V675.061L1763.47 675.3L1763.81 674.36ZM1792.93 684.92H1793.93V684.219L1793.27 683.98L1792.93 684.92ZM1792.93 698H1702.37V700H1792.93V698ZM1703.37 699V684.92H1701.37V699H1703.37ZM1702.71 685.86L1731.83 675.3L1731.15 673.42L1702.03 683.98L1702.71 685.86ZM1732.49 674.36V497.4H1730.49V674.36H1732.49ZM1731.49 496.4H1675.17V498.4H1731.49V496.4ZM1674.24 497.042L1663.68 524.562L1665.54 525.278L1676.1 497.758L1674.24 497.042ZM1664.61 523.92H1644.77V525.92H1664.61V523.92ZM1645.77 524.92V473.08H1643.77V524.92H1645.77ZM1644.77 474.08H1852.77V472.08H1644.77V474.08ZM1851.77 473.08V524.92H1853.77V473.08H1851.77ZM1852.77 523.92H1832.93V525.92H1852.77V523.92ZM1833.86 524.562L1823.3 497.042L1821.44 497.758L1832 525.278L1833.86 524.562ZM1822.37 496.4H1763.81V498.4H1822.37V496.4ZM1762.81 497.4V674.36H1764.81V497.4H1762.81ZM1763.47 675.3L1792.59 685.86L1793.27 683.98L1764.15 673.42L1763.47 675.3ZM1791.93 684.92V699H1793.93V684.92H1791.93Z" fill="white"/>
</svg>
