<svg width="882" height="877" viewBox="0 0 882 877" fill="none" xmlns="http://www.w3.org/2000/svg">
<path d="M437.5 186.394V0C454.348 13.6238 462.287 24.9531 475.5 47.4729C489.678 87.7949 487.593 105.92 486.5 139.421C473.886 170.059 461.549 177.312 437.5 186.394Z" fill="#A5CD38"/>
<path d="M539.609 723.778C509.188 698.207 500.343 677.837 498 637.137C515.479 646.522 525.538 650.495 548.5 653.41C583.605 659.931 588.381 683.675 598.5 723.87C579.175 734.035 568.728 736.089 552.664 731.107C547.856 729.615 543.463 727.018 539.609 723.778Z" fill="#A5CD39"/>
<path d="M696.841 538.506C690.172 599.569 662.23 617.515 597 642.134C599.827 614.494 600.975 606.021 591.638 575.891C589.421 507.131 616.538 500.251 663 469.233C682.091 484.247 687.971 494.989 695.459 522.21C696.914 527.5 697.437 533.053 696.841 538.506Z" fill="#F9A648"/>
<path d="M474.9 219.741C519.486 169.507 555.556 171.165 629.139 190.476C609.222 213.098 602.866 219.857 592.163 252.319C550.814 314.409 522.442 303.447 461.715 301.641C454.195 276.212 455.826 263.028 466.542 233.859C468.44 228.694 471.247 223.857 474.9 219.741Z" fill="#19C1E8"/>
<path d="M714.376 350.219C714.774 285.945 689.741 266.981 628.98 240.643C628.74 269.355 626.271 279.646 614 310.823C604.458 382.161 632.609 388.084 674.201 420.736C694.556 405.131 701.307 393.948 711.713 364.901C713.399 360.196 714.345 355.216 714.376 350.219Z" fill="#3A4151"/>
<path d="M565.495 337.976C522.648 321.701 504.035 324.22 475.544 338.087C492.044 351.777 494.361 359.612 507.103 381.46C537.069 413.704 555.226 402.662 596.597 398.327C596.381 382.104 595.387 372.069 587.847 357.311C583.218 348.252 575.007 341.589 565.495 337.976Z" fill="#FEC907"/>
<path d="M497.444 508.447C520.53 488.428 545.784 485.45 583.406 487.445C569.389 509.528 562.118 516.238 563 543.975C545.123 609.086 519.664 604.901 473 608.154C473 603.205 472.214 596.067 471.187 588.331C467.766 562.567 477.808 525.474 497.444 508.447Z" fill="#19C1E8"/>
<path d="M787.143 549.872C811.907 587.129 815.962 616.884 808.5 666.62C788.403 657.111 778.066 650.492 757.199 635.138C710 595.161 712.5 558.182 722 526.2C745.777 521.828 753.975 526.281 767.436 533.164C775.22 537.143 782.304 542.592 787.143 549.872Z" fill="#3B4151"/>
<path d="M768.28 412.95C823.052 417.997 853.563 442.455 880.5 497.716C854.645 505.988 839.999 508.799 808.882 512.807C730.5 519.704 707.892 484.57 691.695 450.177C712.231 424.71 726.759 422.323 749.196 415.33C755.368 413.406 761.842 412.356 768.28 412.95Z" fill="#FEC907"/>
<path d="M528.231 92.0289C547.83 72.8509 566.161 63.5231 594.5 59.4661C591.708 77.7227 592.206 88.3145 585.489 108.405C569.144 160.376 541.988 162.134 516.325 159.476C513.035 145.83 513.481 137.08 514.019 127.63C514.768 114.472 518.812 101.246 528.231 92.0289Z" fill="#F9A648"/>
<path d="M712.049 694.26C682.195 737.519 659.789 749.92 607.5 758.068C616.95 736.875 623.5 726.586 629.5 700.601C633.405 659.558 655.026 638.708 703 622.145C719.564 645.738 719.812 668.697 712.723 692.851C712.577 693.35 712.344 693.832 712.049 694.26Z" fill="#19C0EA"/>
<path d="M807.533 375.033C843.279 335.032 850.533 309.336 847.176 253.855C828.627 268.07 816.66 276.988 792.822 288.678C792.61 288.781 792.38 288.869 792.154 288.935C746.486 302.153 735.968 336.459 740 388.778C766.592 400.708 784.365 388.68 806.294 376.039C806.754 375.774 807.179 375.429 807.533 375.033Z" fill="#A5CD38"/>
<path d="M738.897 198.378C714.808 157.68 695.728 145.455 650.208 135.923C657.436 155.586 661.895 168.216 665.876 192.002C665.912 192.216 665.931 192.442 665.932 192.659C666.155 236.161 691.433 253.231 734.576 261.456C750.275 240.564 744.65 222.091 739.468 199.801C739.353 199.305 739.157 198.817 738.897 198.378Z" fill="#3A4151"/>
<path d="M455.5 461.737C454.749 345.145 449.201 295.919 437 215.377L428 877H453L455.5 536.194C492.148 454.836 542.314 439.552 663 444.247C583.759 409.215 538.352 412.067 455.5 461.737Z" fill="#3B4151"/>
<path d="M438 877C321.835 877 210.428 830.854 128.287 748.713C46.1463 666.572 8.7702e-06 555.165 0 439C-8.7702e-06 322.835 46.1463 211.428 128.287 129.287C210.428 47.1463 321.835 1.00002 438 1L438 439V877Z" fill="#3B4151"/>
<path d="M252.5 321.5L130 461L167.5 639.5H337.5L373 461L252.5 321.5Z" fill="#FDFFFE"/>
<rect x="126" y="647" width="251" height="45" fill="#FEFEFE"/>
<ellipse cx="252" cy="483" rx="78" ry="96" fill="#3B4151"/>
<path d="M236 545C230.151 533.676 228.724 517.916 230.682 502.865C232.774 486.779 225.465 468.397 210 463.5C219.68 458.797 223.579 451.464 229.537 445.336C231.11 443.718 232.99 442.43 235.021 441.448C239.925 439.076 243.909 438.195 250.216 441.151C254.205 443.021 257.143 446.48 259.526 450.185C262.046 454.101 264.283 457.21 266.575 459.902C272.594 466.973 282.388 469.165 290.303 474.02C291.9 475 293.66 476.197 295.656 477.664C300.282 481.067 304.29 485.416 306.19 490.836C309.727 500.922 310.869 515.621 310.5 545V555.5L270.5 580C255.173 569.751 247.477 562.348 236 545Z" fill="#FEFEFE"/>
<path d="M247.5 255L67 458H117L253.5 304.5L388 458H437.5L259 255V43.5L247.5 52V255Z" fill="#FEFEFE"/>
<ellipse cx="205.997" cy="604.636" rx="23" ry="15.5" transform="rotate(-20.7253 205.997 604.636)" fill="#3B414F"/>
<ellipse cx="252" cy="241.5" rx="21" ry="20.5" fill="#FEFEFE"/>
</svg>
